<?xml version="1.0" encoding="utf-8"?>
<!-- Generator: Adobe Illustrator 16.0.0, SVG Export Plug-In . SVG Version: 6.00 Build 0)  -->
<!DOCTYPE svg PUBLIC "-//W3C//DTD SVG 1.1//EN" "http://www.w3.org/Graphics/SVG/1.1/DTD/svg11.dtd">
<svg version="1.1" id="Layer_1" xmlns="http://www.w3.org/2000/svg" xmlns:xlink="http://www.w3.org/1999/xlink" x="0px" y="0px"
	 width="516px" height="516px" viewBox="0 0 516 516" enable-background="new 0 0 516 516" xml:space="preserve">
<g>
	<g>
		<path fill-rule="evenodd" clip-rule="evenodd" fill="#FECF0A" d="M17.6,344.2h481.6l-5.039,13.78
			c-38.843,91.921-129.776,156.42-235.761,156.42S61.482,449.902,22.639,357.981L17.6,344.2z"/>
		<path fill-rule="evenodd" clip-rule="evenodd" fill="#DB1F26" d="M17.013,173.8h482.773l3.104,8.478
			c7.48,24.037,11.51,49.594,11.51,76.091s-4.029,52.054-11.51,76.091l-3.566,9.74H17.476l-3.567-9.74
			C6.429,310.422,2.4,284.865,2.4,258.368s4.029-52.054,11.509-76.091L17.013,173.8z"/>
		<path fill-rule="evenodd" clip-rule="evenodd" fill="#010101" d="M258.4,2.4c106.044,0,197.03,64.474,235.896,156.361L499.8,173.8
			H17l5.505-15.039C61.37,66.874,152.355,2.4,258.4,2.4L258.4,2.4z"/>
	</g>
</g>
</svg>
