<?xml version="1.0" encoding="utf-8"?>
<!-- Generator: Adobe Illustrator 16.0.0, SVG Export Plug-In . SVG Version: 6.00 Build 0)  -->
<!DOCTYPE svg PUBLIC "-//W3C//DTD SVG 1.1//EN" "http://www.w3.org/Graphics/SVG/1.1/DTD/svg11.dtd">
<svg version="1.1" id="Layer_1" xmlns="http://www.w3.org/2000/svg" xmlns:xlink="http://www.w3.org/1999/xlink" x="0px" y="0px"
	 width="516px" height="516px" viewBox="0 0 516 516" enable-background="new 0 0 516 516" xml:space="preserve">
<g>
	<g>
		<path fill-rule="evenodd" clip-rule="evenodd" fill="#CA4738" d="M343.238,16.8l14.637,5.355
			C449.763,61.012,514.238,151.978,514.238,258c0,106.021-64.476,196.987-156.363,235.844l-14.637,5.355V16.8L343.238,16.8z"/>
		<path fill-rule="evenodd" clip-rule="evenodd" fill="#FBFDFF" d="M258.238,2c26.506,0,52.071,4.03,76.117,11.509l8.883,3.252
			v482.478l-8.883,3.252c-24.046,7.48-49.611,11.51-76.117,11.51c-26.506,0-52.072-4.029-76.117-11.51l-8.883-3.252V16.76
			l8.883-3.251C206.167,6.029,231.732,2,258.238,2L258.238,2z"/>
		<path fill-rule="evenodd" clip-rule="evenodd" fill="#346DA6" d="M173.238,16.8v482.399l-14.637-5.355
			C66.713,454.986,2.238,364.021,2.238,258S66.713,61.012,158.601,22.156L173.238,16.8z"/>
	</g>
</g>
</svg>
