<?xml version="1.0" encoding="utf-8"?>
<!-- Generator: Adobe Illustrator 16.0.0, SVG Export Plug-In . SVG Version: 6.00 Build 0)  -->
<!DOCTYPE svg PUBLIC "-//W3C//DTD SVG 1.1//EN" "http://www.w3.org/Graphics/SVG/1.1/DTD/svg11.dtd">
<svg version="1.1" id="Layer_1" xmlns="http://www.w3.org/2000/svg" xmlns:xlink="http://www.w3.org/1999/xlink" x="0px" y="0px"
	 width="516px" height="516px" viewBox="0 0 516 516" enable-background="new 0 0 516 516" xml:space="preserve">
<g>
	<g>
		<path fill-rule="evenodd" clip-rule="evenodd" fill="#FBFDFF" d="M286.994,287.22h225.75l-1.293,10.171l-0.739,4.139H361.974
			l104.984,104.996l-8.534,11.414l-0.028,0.037L341.74,301.308h-40.438L439.42,439.441l-0.538,0.489l-17.642,16.035l-14.986,11.208
			L301.302,362.209v148.571l-0.84,0.149l-3.075,0.55l-10.362,1.316l-0.03,0.004V287.22L286.994,287.22z M4.056,287.22h225.75V512.8
			l-10.392-1.32l-3.916-0.699V362.209L110.546,467.172l-4.294-3.211l-7.411-5.542L215.497,341.75v-40.442L77.38,439.441
			l-10.024-11.03l-6.499-7.152l-0.095-0.126l-1.881-2.517l-9.04-12.09L154.825,301.53H6.088l-0.739-4.139L4.056,287.22L4.056,287.22
			z M229.806,4v226.025H4l1.349-10.616l0.66-3.693h148.816L49.651,110.53l8.752-11.705l116.656,116.669h40.438L77.38,77.361h0
			l16.456-14.958l0.668-0.607l1.056-0.959l1.952-1.46l1.162-0.869l11.618-8.688l105.207,105.218V6.021l3.916-0.7L229.806,4
			L229.806,4z M286.994,4l10.393,1.321l3.915,0.699v149.016L406.509,49.818l0.334,0.25l8.106,6.063l3.01,2.251L301.302,175.051
			v40.442L439.42,77.361l7.199,7.922l2.57,2.828l6.754,7.431l5.089,6.806l6.117,8.182L361.974,215.716h148.817l0.125,0.703
			l0.534,2.99l1.349,10.616H286.994V4L286.994,4z"/>
		<path fill-rule="evenodd" clip-rule="evenodd" fill="#356CA5" d="M301.303,362.217L406.259,467.19l-4.721,3.531
			c-27.24,18.405-58.212,31.705-91.543,38.527l-8.691,1.552V362.217L301.303,362.217L301.303,362.217z M215.496,362.217V510.8
			l-8.691-1.552c-33.332-6.822-64.303-20.122-91.542-38.527l-4.722-3.531L215.496,362.217L215.496,362.217L215.496,362.217z
			 M361.978,301.533H510.72l-1.513,8.47c-6.82,33.337-20.118,64.313-38.521,91.557l-3.722,4.978L361.978,301.533L361.978,301.533
			L361.978,301.533z M6.079,301.533h148.742L49.834,406.537l-3.721-4.978c-18.403-27.243-31.701-58.22-38.521-91.557L6.079,301.533
			L6.079,301.533L6.079,301.533z M49.644,110.518l105.178,105.194H6l1.592-8.915c6.82-33.336,20.118-64.313,38.521-91.557
			L49.644,110.518L49.644,110.518L49.644,110.518z M467.156,110.518l3.531,4.723c18.402,27.244,31.7,58.221,38.521,91.557
			l1.592,8.915H361.978L467.156,110.518L467.156,110.518L467.156,110.518z M215.496,6v149.028L110.286,49.802l4.977-3.722
			c27.239-18.406,58.211-31.706,91.542-38.527L215.496,6L215.496,6L215.496,6z M301.303,6l8.691,1.553
			c33.331,6.821,64.303,20.121,91.543,38.527l4.976,3.722l-105.21,105.227V6L301.303,6L301.303,6z"/>
		<path fill-rule="evenodd" clip-rule="evenodd" fill="#C94739" d="M301.302,301.303h40.438l116.656,116.655l-2.454,3.282
			c-5.217,6.321-10.732,12.389-16.522,18.179v0.001L301.302,301.303L301.302,301.303z M215.498,301.303v40.438L98.842,458.397
			l-3.282-2.455l-18.18-16.522L215.498,301.303L215.498,301.303z M77.381,77.381l138.117,138.117H175.06L58.404,98.842l2.454-3.282
			L77.381,77.381L77.381,77.381z M417.959,58.405l3.281,2.454c6.321,5.217,12.389,10.732,18.18,16.523l0,0L301.302,215.498V175.06
			L417.959,58.405L417.959,58.405z M258.4,2.4c8.837,0,17.568,0.448,26.175,1.322l2.419,0.308v225.999H512.8l0.279,2.197
			c0.873,8.605,1.321,17.338,1.321,26.175c0,8.836-0.448,17.568-1.321,26.174l-0.336,2.642H286.994v225.555l-2.419,0.308
			c-8.606,0.874-17.338,1.322-26.175,1.322s-17.568-0.448-26.175-1.322l-2.419-0.308V287.216H4.057l-0.335-2.642
			C2.848,275.969,2.4,267.237,2.4,258.401c0-8.837,0.448-17.569,1.322-26.175l0.279-2.197h225.806V4.03l2.419-0.308
			C240.832,2.848,249.563,2.4,258.4,2.4L258.4,2.4z"/>
	</g>
</g>
</svg>
