<?xml version="1.0" encoding="utf-8"?>
<!-- Generator: Adobe Illustrator 16.0.0, SVG Export Plug-In . SVG Version: 6.00 Build 0)  -->
<!DOCTYPE svg PUBLIC "-//W3C//DTD SVG 1.1//EN" "http://www.w3.org/Graphics/SVG/1.1/DTD/svg11.dtd">
<svg version="1.1" id="Layer_1" xmlns="http://www.w3.org/2000/svg" xmlns:xlink="http://www.w3.org/1999/xlink" x="0px" y="0px"
	 width="81px" height="77px" viewBox="0 0 81 77" enable-background="new 0 0 81 77" xml:space="preserve">
<g>
	<g>
		<path fill-rule="evenodd" clip-rule="evenodd" d="M14.641,63.938h51.594v6.752H14.641V63.938L14.641,63.938z M40.438,5.941
			c3.212,0,5.816,2.822,5.816,6.304c0,2.611-1.465,4.851-3.553,5.808l-0.478,0.16l0.883,1.974
			c3.384,8.087,6.392,17.854,14.482,18.292c3.226,0.175,8.065-5.802,12.165-10.785l1.789-2.141l-0.286-0.169
			c-1.547-1.132-2.563-3.051-2.563-5.227c0-3.481,2.603-6.303,5.814-6.303c3.213,0,5.816,2.822,5.816,6.303
			c0,3.046-1.994,5.588-4.644,6.176l-1.024,0.112l-8.218,35.928H40.493h-0.11H14.438L6.22,26.445l-1.025-0.112
			c-2.65-0.588-4.644-3.129-4.644-6.176c0-3.481,2.604-6.303,5.815-6.303s5.815,2.822,5.815,6.303c0,2.176-1.017,4.095-2.564,5.227
			l-0.287,0.169l1.79,2.141c4.1,4.983,8.938,10.96,12.166,10.785c8.089-0.438,11.099-10.205,14.482-18.292l0.882-1.974l-0.477-0.16
			c-2.087-0.957-3.552-3.197-3.552-5.808C34.623,8.763,37.226,5.941,40.438,5.941L40.438,5.941z"/>
	</g>
</g>
</svg>
