<?xml version="1.0" encoding="utf-8"?>
<!-- Generator: Adobe Illustrator 16.0.0, SVG Export Plug-In . SVG Version: 6.00 Build 0)  -->
<!DOCTYPE svg PUBLIC "-//W3C//DTD SVG 1.1//EN" "http://www.w3.org/Graphics/SVG/1.1/DTD/svg11.dtd">
<svg version="1.1" id="Layer_1" xmlns="http://www.w3.org/2000/svg" xmlns:xlink="http://www.w3.org/1999/xlink" x="0px" y="0px"
	 width="81px" height="77px" viewBox="0 0 81 77" enable-background="new 0 0 81 77" xml:space="preserve">
<g>
	<path fill-rule="evenodd" clip-rule="evenodd" d="M79.708,30.085c-0.517,0.189-1.053,0.337-1.546,0.575
		c-12.058,5.8-24.118,11.597-36.157,17.437c-1.048,0.508-1.887,0.539-2.956,0.021c-12.037-5.845-24.098-11.64-36.156-17.44
		c-0.495-0.239-1.028-0.397-1.544-0.592c0-0.714,0-1.428,0-2.143c0.516-0.178,1.057-0.306,1.545-0.541
		c12.116-5.824,24.23-11.65,36.328-17.51c0.906-0.438,1.628-0.474,2.544-0.015c3.368,1.689,28.685,13.889,37.94,18.372
		C79.708,28.861,79.708,29.473,79.708,30.085z"/>
	<path fill-rule="evenodd" clip-rule="evenodd" d="M14.886,39.906c1.781,0.85,3.247,1.544,4.708,2.246
		c6.559,3.157,13.126,6.295,19.662,9.498c0.933,0.458,1.641,0.414,2.548-0.027c7.505-3.654,15.034-7.259,22.558-10.876
		c0.485-0.233,0.982-0.447,1.761-0.8c0,2.585-0.244,4.938,0.06,7.221c0.418,3.145-0.864,4.621-3.688,5.852
		c-6.387,2.784-12.584,6.006-18.89,8.979c-2.012,0.947-4.173,0.95-6.183-0.001c-7.085-3.353-14.125-6.803-21.21-10.154
		c-1.031-0.487-1.385-1.058-1.354-2.189C14.94,46.509,14.886,43.359,14.886,39.906z"/>
	<path fill-rule="evenodd" clip-rule="evenodd" d="M75.578,35.304c0,0.727,0,1.271,0,1.814c0,5.655,0.104,11.313-0.047,16.965
		c-0.07,2.637,0.556,5.052,1.502,7.406c0.553,1.371,0.416,2.381-0.598,3.409c-0.566,0.574-0.989,1.29-1.48,1.94
		c-0.606,0.802-1.229,0.829-1.845,0.015c-0.739-0.975-1.506-1.93-2.181-2.947c-0.217-0.326-0.378-0.914-0.231-1.226
		c2.281-4.814,1.734-9.945,1.753-15.014c0.009-2.7,0.001-5.4,0.001-8.101C72.452,36.638,72.452,36.638,75.578,35.304z"/>
</g>
</svg>
