<?xml version="1.0" encoding="utf-8"?>
<!-- Generator: Adobe Illustrator 16.0.0, SVG Export Plug-In . SVG Version: 6.00 Build 0)  -->
<!DOCTYPE svg PUBLIC "-//W3C//DTD SVG 1.1//EN" "http://www.w3.org/Graphics/SVG/1.1/DTD/svg11.dtd">
<svg version="1.1" id="Layer_1" xmlns="http://www.w3.org/2000/svg" xmlns:xlink="http://www.w3.org/1999/xlink" x="0px" y="0px"
	 width="81px" height="77px" viewBox="0 0 81 77" enable-background="new 0 0 81 77" xml:space="preserve">
<g>
	<path fill-rule="evenodd" clip-rule="evenodd" d="M12.587,76.044c-5.169-0.008-9.461-2.85-11.122-7.449
		c-0.437-1.21-0.715-2.547-0.727-3.828c-0.065-7.777-0.036-15.558-0.032-23.334c0.001-1.802,0.118-1.921,1.904-1.921
		c10.353-0.004,20.708,0.013,31.062-0.021c1.271-0.004,1.777,0.361,1.9,1.712c0.274,3.023,1.93,4.421,4.899,4.434
		c3.085,0.014,4.788-1.349,5.086-4.407c0.141-1.451,0.738-1.743,2.03-1.739c10.255,0.035,20.514,0.019,30.771,0.021
		c1.997,0,2.078,0.078,2.078,2.04c0.005,7.583,0.007,15.165,0,22.749c-0.005,6.685-4.979,11.711-11.705,11.739
		C59.352,76.077,21.92,76.059,12.587,76.044z"/>
	<path fill-rule="evenodd" clip-rule="evenodd" d="M40.661,14.999c9.285,0,18.573-0.002,27.859,0.001
		c7.046,0.002,11.913,4.873,11.92,11.919c0.003,2.82-0.025,5.64,0.011,8.459c0.013,1.107-0.403,1.582-1.542,1.58
		c-10.599-0.02-21.198-0.018-31.798-0.002c-0.943,0.001-1.374-0.353-1.548-1.314c-0.792-4.352-3.43-4.537-6.527-4.132
		c-1.877,0.245-3.02,1.597-3.262,3.458c-0.221,1.686-1.078,2.025-2.644,2.015c-10.113-0.066-20.226-0.032-30.34-0.034
		c-1.999-0.001-2.108-0.082-2.077-2.037c0.057-3.59-0.2-7.232,0.324-10.756c0.812-5.46,5.613-9.148,11.179-9.154
		C21.698,14.992,31.179,14.999,40.661,14.999z"/>
	<path fill-rule="evenodd" clip-rule="evenodd" d="M53.513,14.123c-0.439,0.073-1.022-0.834-1.248-1.445
		c-1.883-5.071-6.434-8.305-11.817-8.291c-5.15,0.015-9.811,3.343-11.518,8.267c-0.388,1.118-1.063,1.553-2.215,1.232
		c-0.931-0.259-1.869-0.488-2.799-0.749c-0.958-0.269-1.586-0.886-1.358-1.906c0.237-1.052,1.088-1.614,2.099-1.226
		c1.178,0.451,1.561-0.057,2.093-0.975c3.081-5.306,7.794-8.11,13.872-8.093c6.083,0.017,10.772,2.866,13.828,8.179
		c0.52,0.904,0.911,1.298,1.996,0.895c1.014-0.377,1.865,0.126,2.134,1.18c0.26,1.025-0.366,1.657-1.309,1.936
		C56.159,13.454,55.03,13.723,53.513,14.123z"/>
	<path fill-rule="evenodd" clip-rule="evenodd" d="M43.359,38.48c0,0.726,0.055,1.455-0.011,2.175
		c-0.144,1.552-1.311,2.677-2.726,2.705c-1.468,0.029-2.737-1.138-2.827-2.744c-0.078-1.397-0.077-2.807-0.003-4.205
		c0.089-1.66,1.259-2.744,2.799-2.734c1.532,0.009,2.648,1.105,2.768,2.773c0.048,0.674,0.008,1.354,0.008,2.031
		C43.365,38.48,43.362,38.48,43.359,38.48z"/>
</g>
</svg>
