<?xml version="1.0" encoding="UTF-8" standalone="no"?>
<!-- Generator: Adobe Illustrator 16.0.0, SVG Export Plug-In . SVG Version: 6.00 Build 0)  -->

<svg
   xmlns:dc="http://purl.org/dc/elements/1.1/"
   xmlns:cc="http://creativecommons.org/ns#"
   xmlns:rdf="http://www.w3.org/1999/02/22-rdf-syntax-ns#"
   xmlns:svg="http://www.w3.org/2000/svg"
   xmlns="http://www.w3.org/2000/svg"
   xmlns:sodipodi="http://sodipodi.sourceforge.net/DTD/sodipodi-0.dtd"
   xmlns:inkscape="http://www.inkscape.org/namespaces/inkscape"
   version="1.1"
   id="Layer_1"
   x="0px"
   y="0px"
   width="81px"
   height="77px"
   viewBox="0 0 81 77"
   enable-background="new 0 0 81 77"
   xml:space="preserve"
   sodipodi:docname="Home.svg"
   inkscape:version="0.92.3 (2405546, 2018-03-11)"><metadata
   id="metadata3791"><rdf:RDF><cc:Work
       rdf:about=""><dc:format>image/svg+xml</dc:format><dc:type
         rdf:resource="http://purl.org/dc/dcmitype/StillImage" /><dc:title></dc:title></cc:Work></rdf:RDF></metadata><defs
   id="defs3789" /><sodipodi:namedview
   pagecolor="#ffffff"
   bordercolor="#666666"
   borderopacity="1"
   objecttolerance="10"
   gridtolerance="10"
   guidetolerance="10"
   inkscape:pageopacity="0"
   inkscape:pageshadow="2"
   inkscape:window-width="1920"
   inkscape:window-height="1001"
   id="namedview3787"
   showgrid="false"
   inkscape:zoom="4.3344727"
   inkscape:cx="76.161301"
   inkscape:cy="31.91456"
   inkscape:window-x="-9"
   inkscape:window-y="-9"
   inkscape:window-maximized="1"
   inkscape:current-layer="Layer_1" />

<path
   inkscape:connector-curvature="0"
   style="fill:#000000;fill-opacity:1;fill-rule:evenodd;stroke:none;stroke-width:0.10829443"
   d="M 40.500001,14.372698 68.42415,39.131605 v 31.150749 4.009786 c 0,0.91673 -0.743489,1.65661 -1.660218,1.65661 H 64.049836 49.097043 V 60.328262 L 48.98155,59.765232 C 48.76139,59.241901 48.24167,58.873766 47.638939,58.873766 H 33.361061 c -0.602731,0 -1.118842,0.368136 -1.339001,0.891466 l -0.115495,0.56303 V 75.94875 H 16.953773 14.239678 c -0.91673,0 -1.660219,-0.739879 -1.660219,-1.65661 V 70.282354 39.131605 Z M 40.207658,1.0512502 h 0.588294 L 80.171998,35.973581 76.010629,40.712421 40.500001,9.2224118 4.9929835,40.712421 0.82800176,35.973581 Z"
   id="path13" /></svg>