<?xml version="1.0" encoding="utf-8"?>
<!-- Generator: Adobe Illustrator 16.0.0, SVG Export Plug-In . SVG Version: 6.00 Build 0)  -->
<!DOCTYPE svg PUBLIC "-//W3C//DTD SVG 1.1//EN" "http://www.w3.org/Graphics/SVG/1.1/DTD/svg11.dtd">
<svg version="1.1" id="Layer_1" xmlns="http://www.w3.org/2000/svg" xmlns:xlink="http://www.w3.org/1999/xlink" x="0px" y="0px"
	 width="81px" height="77px" viewBox="0 0 81 77" enable-background="new 0 0 81 77" xml:space="preserve">
<path d="M40.5,0.511c6.916,0,6.646,20.738,12.242,24.803c5.594,4.063,25.234-2.6,27.371,3.979
	c2.137,6.575-17.67,12.729-19.809,19.305c-2.137,6.578,10.271,23.197,4.678,27.262C59.387,79.923,47.416,62.989,40.5,62.989
	c-6.914,0-18.887,16.936-24.48,12.869c-5.596-4.063,6.813-20.686,4.676-27.262C18.557,42.022-1.248,35.868,0.887,29.292
	c2.139-6.578,21.779,0.086,27.373-3.979C33.855,21.249,33.586,0.511,40.5,0.511z"/>
</svg>
