<?xml version="1.0" encoding="utf-8"?>
<!-- Generator: Adobe Illustrator 16.0.0, SVG Export Plug-In . SVG Version: 6.00 Build 0)  -->
<!DOCTYPE svg PUBLIC "-//W3C//DTD SVG 1.1//EN" "http://www.w3.org/Graphics/SVG/1.1/DTD/svg11.dtd">
<svg version="1.1" id="Layer_1" xmlns="http://www.w3.org/2000/svg" xmlns:xlink="http://www.w3.org/1999/xlink" x="0px" y="0px"
	 width="81px" height="77px" viewBox="0 0 81 77" enable-background="new 0 0 81 77" xml:space="preserve">
<g>
	<path fill-rule="evenodd" clip-rule="evenodd" d="M78.64,35.521c0,1.986,0,3.972,0,5.959c-0.092,0.433-0.216,0.862-0.269,1.301
		c-0.357,2.963-0.959,5.868-2.035,8.659C71.52,63.93,62.673,71.971,49.738,75.439c-2.046,0.549-4.171,0.808-6.258,1.2
		c-1.987,0-3.974,0-5.959,0c-0.481-0.096-0.965-0.184-1.444-0.289c-2.512-0.548-5.082-0.918-7.525-1.688
		c-6.634-2.091-12.198-5.888-16.768-11.123c-4.742-5.436-7.732-11.706-8.865-18.846c-0.17-1.074-0.372-2.143-0.558-3.213
		c0-1.987,0-3.973,0-5.959c0.091-0.434,0.216-0.864,0.269-1.302c0.357-2.963,0.958-5.867,2.036-8.66
		C9.48,13.072,18.327,5.031,31.263,1.561c2.046-0.549,4.169-0.807,6.258-1.2c1.986,0,3.972,0,5.959,0
		c0.481,0.096,0.964,0.185,1.443,0.289c2.512,0.549,5.082,0.919,7.525,1.689c6.634,2.091,12.198,5.888,16.767,11.124
		c4.742,5.435,7.732,11.706,8.866,18.846C78.252,33.381,78.453,34.45,78.64,35.521z M40.409,72.001
		c2.068-0.237,4.136-0.473,6.203-0.718c0.162-0.02,0.315-0.112,0.473-0.171c-0.174-0.084-0.339-0.205-0.522-0.245
		c-2.346-0.524-4.17-1.967-6.098-3.289c-1.722-1.182-2.398-2.754-2.672-4.702c-0.414-2.944-0.882-5.884-1.431-8.806
		c-0.293-1.561-0.844-3.066-1.92-4.3c-0.771-0.881-1.631-1.538-2.929-1.494c-0.984,0.034-1.982-0.118-2.963-0.261
		c-1.783-0.259-3.527-0.713-4.965-1.847c-2.741-2.161-4.067-5.039-3.554-8.5c0.539-3.636,2.041-6.744,5.806-8.166
		c0.462-0.175,0.91-0.394,1.347-0.626c2.1-1.114,4.114-0.919,6.031,0.412c0.896,0.622,1.715,1.351,2.608,1.978
		c1.335,0.938,2.656,1.913,4.073,2.712c1.197,0.675,2.474,0.944,3.685-0.197c0.45-0.425,1.121-0.621,1.703-0.896
		c1.121-0.529,2.273-0.995,3.363-1.579c0.552-0.296,1.024-0.765,1.472-1.216c0.24-0.241,0.399-0.628-0.104-0.833
		c-0.991-0.401-0.495-0.877-0.061-1.318c0.521-0.53,1.108-1,1.602-1.553c0.376-0.421,0.662-1.037,0.083-1.428
		c-0.543-0.368-1.266-0.722-1.885-0.683c-2.644,0.167-4.288,2.586-3.575,5.156c0.151,0.545,0.034,0.693-0.495,0.728
		c-1.26,0.081-2.385-0.257-3.255-1.164c-1.098-1.144-2.126-2.354-3.172-3.547c-0.699-0.798-1.465-1.488-2.539-1.727
		c-1.24-0.275-2.622,0.233-2.812,1.195c-0.444,2.242-3.454,2.588-5.026,1.682c-0.574-0.33-0.578-0.827,0.009-1.115
		c0.439-0.216,0.951-0.28,1.409-0.463c0.81-0.325,0.944-0.778,0.419-1.495c-0.321-0.438-0.729-0.812-1.09-1.221
		c-0.363-0.411-0.375-0.565,0.275-0.717c1.485-0.347,2.957-0.782,4.391-1.302c0.667-0.241,1.355-0.619,1.437-1.544
		c0.018-0.197,0.496-0.526,0.725-0.497c0.673,0.085,1.35,0.259,1.982,0.51c0.734,0.291,1.389,0.815,2.138,1.022
		c0.567,0.156,1.345,0.176,1.824-0.099c1.008-0.579,1.655-1.568,1.937-2.714c0.299-1.216-0.334-1.942-1.598-1.824
		c-0.579,0.055-1.139,0.315-1.712,0.462c-0.26,0.067-0.674,0.204-0.768,0.094c-0.158-0.184-0.224-0.579-0.137-0.815
		c0.2-0.548,0.417-1.144,0.797-1.564c1.973-2.178,4.383-3.708,7.209-4.527c0.768-0.222,1.521-0.188,2.203,0.456
		c0.736,0.697,1.682,1.115,2.722,0.952c0.496-0.078,1.045-0.339,1.396-0.689c0.599-0.596,0.451-1.104-0.353-1.438
		c-1.188-0.494-2.38-1.001-3.606-1.382c-4.809-1.493-9.722-1.943-14.712-1.218c-5.186,0.753-9.954,2.6-14.271,5.6
		c-0.679,0.473-0.818,0.731-0.009,1.209c0.477,0.282,1.034,0.708,0.593,1.45c-0.503,0.849-0.96,1.729-1.514,2.544
		c-2.05,3.013-4.516,5.403-8.464,5.578c-0.322,0.015-0.73,0.442-0.919,0.779c-1.664,2.963-2.779,6.132-3.428,9.465
		c-0.294,1.516-0.277,1.513,1.132,2.303c0.344,0.193,0.68,0.413,0.984,0.665c1.542,1.275,1.566,2.147,0.281,3.682
		c-1.93,2.307-2.899,4.776-2.066,7.939C11.989,61.459,25.153,71.791,40.409,72.001z M52.438,41.774
		c0.017,1.67,0.639,2.25,2.302,2.104c0.391-0.034,0.779-0.136,1.157-0.247c0.949-0.28,1.885-0.61,2.841-0.863
		c0.307-0.082,0.661,0.01,0.993,0.022c-0.022,0.37,0,0.749-0.08,1.104c-0.063,0.282-0.242,0.541-0.389,0.8
		c-0.853,1.511-1.726,3.009-2.563,4.527c-2.129,3.859-4.457,7.62-5.903,11.818c-0.647,1.879-1.104,3.781-1.053,5.811
		c0.026,1.003-0.324,2.02-0.541,3.021c-0.058,0.262-0.256,0.492-0.391,0.737c0.288-0.008,0.578,0.011,0.859-0.028
		c0.243-0.034,0.479-0.128,0.714-0.205c8.594-2.799,15.093-8.158,19.495-16.039c1.382-2.476,2.352-5.13,3.028-7.885
		c0.045-0.183,0.007-0.386,0.008-0.58c-0.15,0.054-0.322,0.078-0.45,0.165c-0.714,0.495-1.114,0.152-1.333-0.523
		c-0.275-0.847-0.544-1.701-0.728-2.571c-0.273-1.298-1.091-1.955-2.339-2.143c-0.586-0.088-1.184-0.09-1.774-0.152
		c-1.318-0.143-2.635-0.303-3.954-0.444c-0.232-0.025-0.498-0.06-0.703,0.022c-1.283,0.506-2.543,0.193-3.807-0.06
		c-0.972-0.195-1.936-0.436-2.913-0.58C53.135,39.322,52.42,39.977,52.438,41.774z"/>
</g>
</svg>
