<?xml version="1.0" encoding="utf-8"?>
<!-- Generator: Adobe Illustrator 16.0.0, SVG Export Plug-In . SVG Version: 6.00 Build 0)  -->
<!DOCTYPE svg PUBLIC "-//W3C//DTD SVG 1.1//EN" "http://www.w3.org/Graphics/SVG/1.1/DTD/svg11.dtd">
<svg version="1.1" id="Layer_1" xmlns="http://www.w3.org/2000/svg" xmlns:xlink="http://www.w3.org/1999/xlink" x="0px" y="0px"
	 width="81px" height="77px" viewBox="0 0 81 77" enable-background="new 0 0 81 77" xml:space="preserve">
<g>
	<path fill-rule="evenodd" clip-rule="evenodd" d="M57.538,76.104c-11.361,0-22.719,0-34.078,0
		c-3.258-1.212-4.315-3.627-4.302-6.998c0.081-20.401,0.078-40.806,0-61.21c-0.01-3.365,1.037-5.788,4.302-6.999
		c11.359,0,22.716,0,34.078,0c3.263,1.211,4.31,3.633,4.3,6.999c-0.078,20.404-0.078,40.809,0.003,61.21
		C61.851,72.48,60.798,74.892,57.538,76.104z M57.602,10.264c-11.476,0-22.836,0-34.208,0c0,16.206,0,32.284,0,48.423
		c11.438,0,22.773,0,34.208,0C57.602,42.548,57.602,26.469,57.602,10.264z M40.429,6.838c2.349,0,4.697-0.034,7.047,0.013
		c0.953,0.02,1.519-0.268,1.515-1.278c-0.003-0.944-0.425-1.399-1.444-1.392c-4.697,0.034-9.398,0.034-14.096,0
		c-1.02-0.007-1.438,0.455-1.438,1.398c0,1.007,0.563,1.295,1.519,1.275C35.826,6.805,38.127,6.838,40.429,6.838z M40.517,70.644
		c1.867-0.014,3.466-1.612,3.459-3.459c-0.011-1.841-1.64-3.439-3.496-3.426c-1.86,0.011-3.476,1.629-3.453,3.466
		C37.047,69.086,38.65,70.658,40.517,70.644z"/>
</g>
</svg>
