<?xml version="1.0" encoding="utf-8"?>
<!-- Generator: Adobe Illustrator 16.0.0, SVG Export Plug-In . SVG Version: 6.00 Build 0)  -->
<!DOCTYPE svg PUBLIC "-//W3C//DTD SVG 1.1//EN" "http://www.w3.org/Graphics/SVG/1.1/DTD/svg11.dtd">
<svg version="1.1" id="Layer_1" xmlns="http://www.w3.org/2000/svg" xmlns:xlink="http://www.w3.org/1999/xlink" x="0px" y="0px"
	 width="81px" height="77px" viewBox="0 0 81 77" enable-background="new 0 0 81 77" xml:space="preserve">
<g>
	<g>
		<path fill-rule="evenodd" clip-rule="evenodd" d="M32.892,58.967l-3.501,0.052v3.129l3.501-0.144V58.967L32.892,58.967z
			 M22.765,58.967v3.037l3.502,0.144v-3.129L22.765,58.967L22.765,58.967z M37.987,58.891l-3.304,0.047v2.993l3.304-0.134V58.891
			L37.987,58.891z M17.671,58.891v2.906l3.304,0.134v-2.993L17.671,58.891L17.671,58.891z M42.392,58.823l-3.182,0.047v2.876
			l3.182-0.127V58.823L42.392,58.823z M13.267,58.823v2.796l3.181,0.127V58.87L13.267,58.823L13.267,58.823z M46.814,58.756
			L43.7,58.804v2.761l3.114-0.127V58.756L46.814,58.756z M8.843,58.756v2.682l3.115,0.127v-2.761L8.843,58.756L8.843,58.756z
			 M62.41,58.048l-2.381,0.019v2.762l2.381-0.107V58.048L62.41,58.048z M65.928,58.018l-2.356,0.021v2.629l2.356-0.105V58.018
			L65.928,58.018z M68.973,57.993l-2.249,0.02v2.515l2.249-0.102V57.993L68.973,57.993z M72.146,57.97l-2.328,0.018v2.399
			l2.328-0.105V57.97L72.146,57.97z M43.7,54.217v2.934h3.114v-2.894L43.7,54.217L43.7,54.217z M11.958,54.217l-3.115,0.04v2.894
			h3.115V54.217L11.958,54.217z M39.209,54.157v2.993h3.182V54.2L39.209,54.157L39.209,54.157z M16.448,54.157L13.267,54.2v2.95
			h3.181V54.157L16.448,54.157z M69.817,54.137v2.443l2.328,0.001v-2.436L69.817,54.137L69.817,54.137z M66.724,54.127v2.449
			l2.249,0.002v-2.443L66.724,54.127L66.724,54.127z M63.571,54.115v2.457l2.356,0.004v-2.452L63.571,54.115L63.571,54.115z
			 M60.029,54.104v2.467l2.381,0.001v-2.46L60.029,54.104L60.029,54.104z M34.683,54.101v3.05h3.304v-3.007L34.683,54.101
			L34.683,54.101z M20.975,54.101l-3.304,0.043v3.007h3.304V54.101L20.975,54.101z M29.391,54.032v3.118h3.501v-3.073L29.391,54.032
			L29.391,54.032z M26.267,54.032l-3.502,0.045v3.073h3.502V54.032L26.267,54.032z M69.817,50.287v2.417l2.328,0.043v-2.385
			L69.817,50.287L69.817,50.287z M66.724,50.188v2.461l2.249,0.041v-2.431L66.724,50.188L66.724,50.188z M63.571,50.083v2.511
			l2.356,0.041V50.16L63.571,50.083L63.571,50.083z M60.029,49.97v2.562l2.381,0.041v-2.526L60.029,49.97L60.029,49.97z
			 M48.177,49.584v2.736l9.779,0.174v-2.593L48.177,49.584L48.177,49.584z M43.7,49.438v2.803l3.114,0.056V49.54L43.7,49.438
			L43.7,49.438z M11.958,49.438L8.843,49.54v2.757l3.115-0.056V49.438L11.958,49.438z M39.209,49.293v2.868l3.182,0.057v-2.822
			L39.209,49.293L39.209,49.293z M16.448,49.293l-3.181,0.103v2.822l3.181-0.057V49.293L16.448,49.293z M34.683,49.146v2.937
			l3.304,0.059v-2.888L34.683,49.146L34.683,49.146z M20.975,49.146l-3.304,0.107v2.888l3.304-0.059V49.146L20.975,49.146z
			 M29.391,48.973v3.015l3.501,0.062v-2.961L29.391,48.973L29.391,48.973z M26.267,48.973l-3.502,0.115v2.961l3.502-0.062V48.973
			L26.267,48.973z M69.817,46.558v2.405l2.328,0.099v-2.367L69.817,46.558L69.817,46.558z M66.724,46.375v2.455l2.249,0.096v-2.418
			L66.724,46.375L66.724,46.375z M63.571,46.19v2.505l2.356,0.101v-2.468L63.571,46.19L63.571,46.19z M60.029,45.981v2.56
			l2.381,0.104v-2.522L60.029,45.981L60.029,45.981z M48.177,45.285v2.749l9.779,0.419V45.86L48.177,45.285L48.177,45.285z
			 M43.7,45.023v2.818l3.114,0.135v-2.771L43.7,45.023L43.7,45.023z M11.958,45.023l-3.115,0.183v2.771l3.115-0.135V45.023
			L11.958,45.023z M39.209,44.76v2.89l3.182,0.136v-2.84L39.209,44.76L39.209,44.76z M16.448,44.76l-3.181,0.186v2.84l3.181-0.136
			V44.76L16.448,44.76z M34.683,44.495v2.96l3.304,0.141v-2.907L34.683,44.495L34.683,44.495z M20.975,44.495l-3.304,0.193v2.907
			l3.304-0.141V44.495L20.975,44.495z M29.391,44.184v3.044l3.501,0.151V44.39L29.391,44.184L29.391,44.184z M26.267,44.184
			l-3.502,0.206v2.989l3.502-0.151V44.184L26.267,44.184z M69.817,42.606v2.485l2.328,0.158v-2.447L69.817,42.606L69.817,42.606z
			 M66.724,42.346v2.532l2.249,0.155v-2.498L66.724,42.346L66.724,42.346z M63.571,42.08v2.583l2.356,0.16v-2.545L63.571,42.08
			L63.571,42.08z M60.029,41.781v2.637l2.381,0.164v-2.6L60.029,41.781L60.029,41.781z M48.177,40.782v2.822l9.779,0.671v-2.669
			L48.177,40.782L48.177,40.782z M43.7,40.404v2.894l3.114,0.215v-2.847L43.7,40.404L43.7,40.404z M11.958,40.404l-3.115,0.262
			v2.847l3.115-0.215V40.404L11.958,40.404z M39.209,40.025v2.965l3.182,0.219v-2.916L39.209,40.025L39.209,40.025z M16.448,40.025
			l-3.181,0.268v2.916l3.181-0.219V40.025L16.448,40.025z M34.683,39.644v3.035l3.304,0.226v-2.981L34.683,39.644L34.683,39.644z
			 M20.975,39.644l-3.304,0.279v2.981l3.304-0.226V39.644L20.975,39.644z M29.391,39.198v3.117l3.501,0.241v-3.064L29.391,39.198
			L29.391,39.198z M26.267,39.198l-3.502,0.294v3.064l3.502-0.241V39.198L26.267,39.198z M59.953,30.601v5.293l3.317,0.417v-5.136
			L59.953,30.601L59.953,30.601z M54.897,29.726v5.533l3.627,0.456v-5.36L54.897,29.726L54.897,29.726z M28.199,29.063l-4.037,0.47
			v2.634l2.93-0.377l1.107,0.069V29.063L28.199,29.063z M49.36,28.768v5.795l4.08,0.513v-5.603L49.36,28.768L49.36,28.768z
			 M33.991,28.389l-4.101,0.478v3.158l4.101,0.591V28.389L33.991,28.389z M43.495,27.752v6.073l4.286,0.539v-5.87L43.495,27.752
			L43.495,27.752z M39.979,27.691l-4.295,0.5v4.667l4.295,0.619V27.691L39.979,27.691z M59.953,21.651v5.324l3.317,0.622v-5.182
			L59.953,21.651L59.953,21.651z M54.897,20.488v5.54l3.627,0.68v-5.386L54.897,20.488L54.897,20.488z M28.199,19.725l-4.037,0.785
			v5.712l4.037-0.564V19.725L28.199,19.725z M49.36,19.212v5.778l4.08,0.766v-5.604L49.36,19.212L49.36,19.212z M33.991,18.598
			l-4.101,0.798v6.025l4.101-0.573V18.598L33.991,18.598z M43.495,17.86v6.03l4.286,0.805v-5.846L43.495,17.86L43.495,17.86z
			 M39.979,17.435l-4.295,0.835v6.341l4.295-0.601V17.435L39.979,17.435z M59.953,12.539v5.407l3.317,0.848v-5.307L59.953,12.539
			L59.953,12.539z M54.897,11.095v5.559l3.627,0.927v-5.45L54.897,11.095L54.897,11.095z M28.199,10.596l-4.037,1.002v5.693
			l4.037-0.853V10.596L28.199,10.596z M49.36,9.513v5.725l4.08,1.042v-5.602L49.36,9.513L49.36,9.513z M33.991,9.157l-4.101,1.019
			v5.905l4.101-0.865V9.157L33.991,9.157z M43.495,7.837v5.9l4.286,1.097V9.063L43.495,7.837L43.495,7.837z M39.979,7.669
			l-4.295,1.067v6.121l4.295-0.907V7.669L39.979,7.669z M41.671,0.417l15.885,5.077v2.864l6.898,1.823v26.296l9.242,1.171v32.676
			l-2.301,0.322v-8.232l-3.521,0.161v8.563l-2.709,0.382v-8.822l-3.822,0.176v9.18l-3.41,0.478V61.036h0.022v-6.41l-9.779-0.073
			v8.864v9.072v1.409l-2.287,0.319V64.192l-5.219,0.249V74.95l-3.692,0.516V64.62l-5.754,0.275v11.376l-4.003,0.562L7.304,74.49
			V34.524l14.19-1.953V7.837l6.639-1.302V4.062L41.671,0.417L41.671,0.417z"/>
	</g>
</g>
</svg>
